<svg xmlns="http://www.w3.org/2000/svg" viewBox="0 0 1024 1024" width="1024" height="1024">
  <defs>
    <linearGradient id="bg" x1="0" y1="0" x2="1" y2="1">
      <stop offset="0%" stop-color="#3AB063"/>
      <stop offset="100%" stop-color="#2D8E4E"/>
    </linearGradient>
  </defs>
  <!-- Background with rounded corners (iOS clips this) -->
  <rect width="1024" height="1024" rx="224" fill="url(#bg)"/>
  <!-- Fork -->
  <g stroke="white" stroke-width="32" fill="none" stroke-linecap="round" stroke-linejoin="round">
    <line x1="360" y1="240" x2="360" y2="780"/>
    <line x1="310" y1="240" x2="310" y2="440"/>
    <line x1="360" y1="240" x2="360" y2="440"/>
    <line x1="410" y1="240" x2="410" y2="440"/>
    <path d="M310 440 Q360 510 410 440"/>
  </g>
  <!-- Knife -->
  <g stroke="white" stroke-width="32" fill="none" stroke-linecap="round" stroke-linejoin="round">
    <line x1="620" y1="480" x2="620" y2="780"/>
    <path d="M620 240 Q740 360 620 480"/>
    <line x1="620" y1="240" x2="620" y2="480"/>
  </g>
  <!-- Small chart bars -->
  <rect x="490" y="680" width="36" height="80" rx="8" fill="white" opacity="0.5"/>
  <rect x="540" y="650" width="36" height="110" rx="8" fill="white" opacity="0.7"/>
  <rect x="590" y="620" width="36" height="140" rx="8" fill="white" opacity="0.9"/>
</svg>
